<svg xmlns="http://www.w3.org/2000/svg" id="wasabi" viewBox="0 0 64 64">
  <path fill="#fff" stroke="#373737" stroke-linecap="round" stroke-linejoin="round" stroke-width="2px" d="M4 31.659C4 41.789 16.536 50 32 50s28-8.212 28-18.341z"></path>
  <ellipse cx="32" cy="31.659" fill="#fff" rx="28" ry="11.659"></ellipse>
  <path fill="#e5e5e5" d="M32 29c-11.633 0-21.607 2.954-25.836 7.159 4.23 4.205 14.203 7.159 25.836 7.159s21.607-2.954 25.836-7.159C53.606 31.954 43.633 29 32 29z"></path>
  <ellipse cx="32" cy="31.659" rx="28" ry="11.659" stroke="#373737" stroke-linecap="round" stroke-linejoin="round" stroke-width="2px" fill="none"></ellipse>
  <path fill="#95d066" d="M34.126 15a21.943 21.943 0 0 1-11.45 10.862C18.632 27.442 16 30.022 16 32.936 16 37.743 23.163 39 32 39s16-1.256 16-6.064a5.434 5.434 0 0 0-1.17-3.272C42.463 23.816 34.126 15 34.126 15z"></path>
  <path fill="#83b65a" d="M46.83 29.665C42.463 23.815 34.126 15 34.126 15a24.037 24.037 0 0 1-3.36 5.056c2.645 2.95 5.86 6.656 8.065 9.608A5.434 5.434 0 0 1 40 32.937c0 4.055-5.103 5.579-12 5.958Q29.921 39 32 39c8.836 0 16-1.256 16-6.064a5.434 5.434 0 0 0-1.17-3.271z"></path>
  <ellipse cx="25" cy="32" fill="#bfe3a3" rx="4" ry="3"></ellipse>
  <path d="M34.126 15a21.943 21.943 0 0 1-11.45 10.862C18.632 27.442 16 30.022 16 32.936 16 37.743 23.163 39 32 39s16-1.256 16-6.064a5.434 5.434 0 0 0-1.17-3.272C42.463 23.816 34.126 15 34.126 15z" stroke="#373737" stroke-linecap="round" stroke-linejoin="round" stroke-width="2px" fill="none"></path>
</svg>
